<mxfile host="app.diagrams.net" modified="2020-12-16T14:35:39.298Z" agent="5.0 (Windows NT 10.0; Win64; x64) AppleWebKit/537.36 (KHTML, like Gecko) Chrome/87.0.4280.88 Safari/537.36" etag="d_e23yCOEejnv6XyjCy2" version="14.0.4" type="github" pages="2">
  <diagram id="7Vlq54MvEyiGmQHLi1vK" name="MS Arc">
    <mxGraphModel dx="2031" dy="1134" grid="1" gridSize="10" guides="1" tooltips="1" connect="1" arrows="1" fold="1" page="1" pageScale="1" pageWidth="1654" pageHeight="1169" math="0" shadow="1">
      <root>
        <mxCell id="0" />
        <mxCell id="1" parent="0" />
        <mxCell id="2ux-XNGseXbHJTvCzGbi-45" style="edgeStyle=orthogonalEdgeStyle;rounded=0;orthogonalLoop=1;jettySize=auto;html=1;entryX=0.038;entryY=0.553;entryDx=0;entryDy=0;entryPerimeter=0;" parent="1" source="2ux-XNGseXbHJTvCzGbi-1" target="2ux-XNGseXbHJTvCzGbi-27" edge="1">
          <mxGeometry relative="1" as="geometry">
            <Array as="points">
              <mxPoint x="760" y="525" />
              <mxPoint x="760" y="319" />
            </Array>
          </mxGeometry>
        </mxCell>
        <mxCell id="2ux-XNGseXbHJTvCzGbi-46" style="edgeStyle=orthogonalEdgeStyle;rounded=0;orthogonalLoop=1;jettySize=auto;html=1;entryX=0.038;entryY=0.594;entryDx=0;entryDy=0;entryPerimeter=0;" parent="1" source="2ux-XNGseXbHJTvCzGbi-1" target="2ux-XNGseXbHJTvCzGbi-29" edge="1">
          <mxGeometry relative="1" as="geometry">
            <Array as="points">
              <mxPoint x="760" y="525" />
              <mxPoint x="760" y="626" />
            </Array>
          </mxGeometry>
        </mxCell>
        <mxCell id="2ux-XNGseXbHJTvCzGbi-47" style="edgeStyle=orthogonalEdgeStyle;rounded=0;orthogonalLoop=1;jettySize=auto;html=1;entryX=0.038;entryY=0.565;entryDx=0;entryDy=0;entryPerimeter=0;" parent="1" source="2ux-XNGseXbHJTvCzGbi-1" target="2ux-XNGseXbHJTvCzGbi-28" edge="1">
          <mxGeometry relative="1" as="geometry">
            <Array as="points">
              <mxPoint x="760" y="525" />
              <mxPoint x="760" y="471" />
            </Array>
          </mxGeometry>
        </mxCell>
        <mxCell id="2ux-XNGseXbHJTvCzGbi-78" style="edgeStyle=orthogonalEdgeStyle;rounded=0;orthogonalLoop=1;jettySize=auto;html=1;" parent="1" source="2ux-XNGseXbHJTvCzGbi-1" edge="1">
          <mxGeometry relative="1" as="geometry">
            <mxPoint x="350" y="350" as="targetPoint" />
            <Array as="points">
              <mxPoint x="480" y="525" />
              <mxPoint x="480" y="350" />
            </Array>
          </mxGeometry>
        </mxCell>
        <mxCell id="2ux-XNGseXbHJTvCzGbi-79" style="edgeStyle=orthogonalEdgeStyle;rounded=0;orthogonalLoop=1;jettySize=auto;html=1;" parent="1" source="2ux-XNGseXbHJTvCzGbi-1" target="2ux-XNGseXbHJTvCzGbi-57" edge="1">
          <mxGeometry relative="1" as="geometry" />
        </mxCell>
        <mxCell id="2ux-XNGseXbHJTvCzGbi-80" style="edgeStyle=orthogonalEdgeStyle;rounded=0;orthogonalLoop=1;jettySize=auto;html=1;entryX=1;entryY=0.5;entryDx=0;entryDy=0;entryPerimeter=0;" parent="1" source="2ux-XNGseXbHJTvCzGbi-1" target="2ux-XNGseXbHJTvCzGbi-58" edge="1">
          <mxGeometry relative="1" as="geometry">
            <Array as="points">
              <mxPoint x="480" y="525" />
              <mxPoint x="480" y="702" />
            </Array>
          </mxGeometry>
        </mxCell>
        <mxCell id="2ux-XNGseXbHJTvCzGbi-1" value="" style="outlineConnect=0;fontColor=#232F3E;gradientColor=#F54749;gradientDirection=north;fillColor=#C7131F;strokeColor=#ffffff;dashed=0;verticalLabelPosition=bottom;verticalAlign=top;align=center;html=1;fontSize=12;fontStyle=0;aspect=fixed;shape=mxgraph.aws4.resourceIcon;resIcon=mxgraph.aws4.api_gateway;" parent="1" vertex="1">
          <mxGeometry x="520" y="465" width="120" height="120" as="geometry" />
        </mxCell>
        <mxCell id="2ux-XNGseXbHJTvCzGbi-3" value="" style="endArrow=none;dashed=1;html=1;" parent="1" edge="1">
          <mxGeometry width="50" height="50" relative="1" as="geometry">
            <mxPoint x="440" y="880" as="sourcePoint" />
            <mxPoint x="440" y="150" as="targetPoint" />
          </mxGeometry>
        </mxCell>
        <mxCell id="2ux-XNGseXbHJTvCzGbi-4" value="" style="endArrow=none;dashed=1;html=1;" parent="1" edge="1">
          <mxGeometry width="50" height="50" relative="1" as="geometry">
            <mxPoint x="720" y="880" as="sourcePoint" />
            <mxPoint x="720" y="150" as="targetPoint" />
          </mxGeometry>
        </mxCell>
        <mxCell id="2ux-XNGseXbHJTvCzGbi-5" value="&lt;font style=&quot;font-size: 24px&quot;&gt;Clients&lt;/font&gt;" style="text;html=1;strokeColor=none;fillColor=none;align=center;verticalAlign=middle;whiteSpace=wrap;rounded=0;" parent="1" vertex="1">
          <mxGeometry x="290" y="130" width="40" height="20" as="geometry" />
        </mxCell>
        <mxCell id="2ux-XNGseXbHJTvCzGbi-6" value="&lt;span style=&quot;font-size: 24px&quot;&gt;API Gateway&lt;/span&gt;" style="text;html=1;strokeColor=none;fillColor=none;align=center;verticalAlign=middle;whiteSpace=wrap;rounded=0;" parent="1" vertex="1">
          <mxGeometry x="500" y="130" width="160" height="20" as="geometry" />
        </mxCell>
        <mxCell id="2ux-XNGseXbHJTvCzGbi-8" value="&lt;span style=&quot;font-size: 24px&quot;&gt;Micro Services&lt;/span&gt;" style="text;html=1;strokeColor=none;fillColor=none;align=center;verticalAlign=middle;whiteSpace=wrap;rounded=0;" parent="1" vertex="1">
          <mxGeometry x="780" y="130" width="170" height="20" as="geometry" />
        </mxCell>
        <mxCell id="2ux-XNGseXbHJTvCzGbi-9" value="" style="endArrow=none;dashed=1;html=1;" parent="1" edge="1">
          <mxGeometry width="50" height="50" relative="1" as="geometry">
            <mxPoint x="1000" y="880" as="sourcePoint" />
            <mxPoint x="1000" y="150" as="targetPoint" />
          </mxGeometry>
        </mxCell>
        <mxCell id="2ux-XNGseXbHJTvCzGbi-11" value="&lt;span style=&quot;font-size: 24px&quot;&gt;Databases&lt;/span&gt;" style="text;html=1;strokeColor=none;fillColor=none;align=center;verticalAlign=middle;whiteSpace=wrap;rounded=0;" parent="1" vertex="1">
          <mxGeometry x="1035.81" y="130" width="170" height="20" as="geometry" />
        </mxCell>
        <mxCell id="2ux-XNGseXbHJTvCzGbi-18" value="" style="aspect=fixed;html=1;points=[];align=center;image;fontSize=12;image=img/lib/mscae/Cache_including_Redis.svg;" parent="1" vertex="1">
          <mxGeometry x="1100.8100000000002" y="720" width="80" height="80" as="geometry" />
        </mxCell>
        <mxCell id="2ux-XNGseXbHJTvCzGbi-73" style="edgeStyle=orthogonalEdgeStyle;rounded=0;orthogonalLoop=1;jettySize=auto;html=1;entryX=0.988;entryY=0.5;entryDx=0;entryDy=0;entryPerimeter=0;" parent="1" source="2ux-XNGseXbHJTvCzGbi-20" target="2ux-XNGseXbHJTvCzGbi-27" edge="1">
          <mxGeometry relative="1" as="geometry" />
        </mxCell>
        <mxCell id="2ux-XNGseXbHJTvCzGbi-20" value="" style="aspect=fixed;html=1;points=[];align=center;image;fontSize=12;image=img/lib/mscae/SQL_Database_generic.svg;" parent="1" vertex="1">
          <mxGeometry x="1100.81" y="270" width="60.8" height="80" as="geometry" />
        </mxCell>
        <mxCell id="2ux-XNGseXbHJTvCzGbi-75" style="edgeStyle=orthogonalEdgeStyle;rounded=0;orthogonalLoop=1;jettySize=auto;html=1;" parent="1" source="2ux-XNGseXbHJTvCzGbi-21" edge="1">
          <mxGeometry relative="1" as="geometry">
            <mxPoint x="930" y="460" as="targetPoint" />
          </mxGeometry>
        </mxCell>
        <mxCell id="2ux-XNGseXbHJTvCzGbi-21" value="" style="aspect=fixed;html=1;points=[];align=center;image;fontSize=12;image=img/lib/mscae/Azure_Database_for_PostgreSQL_servers.svg;" parent="1" vertex="1">
          <mxGeometry x="1100.81" y="420" width="60.8" height="80" as="geometry" />
        </mxCell>
        <mxCell id="2ux-XNGseXbHJTvCzGbi-76" style="edgeStyle=orthogonalEdgeStyle;rounded=0;orthogonalLoop=1;jettySize=auto;html=1;entryX=0.988;entryY=0.5;entryDx=0;entryDy=0;entryPerimeter=0;" parent="1" source="2ux-XNGseXbHJTvCzGbi-24" target="2ux-XNGseXbHJTvCzGbi-29" edge="1">
          <mxGeometry relative="1" as="geometry" />
        </mxCell>
        <mxCell id="2ux-XNGseXbHJTvCzGbi-24" value="" style="aspect=fixed;html=1;points=[];align=center;image;fontSize=12;image=img/lib/mscae/Azure_Database_for_MySQL_servers.svg;" parent="1" vertex="1">
          <mxGeometry x="1100.81" y="570" width="60.8" height="80" as="geometry" />
        </mxCell>
        <mxCell id="2ux-XNGseXbHJTvCzGbi-26" value="" style="outlineConnect=0;dashed=0;verticalLabelPosition=bottom;verticalAlign=top;align=center;html=1;shape=mxgraph.aws3.elasticsearch_service;fillColor=#F58534;gradientColor=none;" parent="1" vertex="1">
          <mxGeometry x="1373.87" y="520" width="67.5" height="81" as="geometry" />
        </mxCell>
        <mxCell id="2ux-XNGseXbHJTvCzGbi-35" style="edgeStyle=orthogonalEdgeStyle;rounded=0;orthogonalLoop=1;jettySize=auto;html=1;" parent="1" source="2ux-XNGseXbHJTvCzGbi-27" target="2ux-XNGseXbHJTvCzGbi-20" edge="1">
          <mxGeometry relative="1" as="geometry" />
        </mxCell>
        <mxCell id="2ux-XNGseXbHJTvCzGbi-77" style="edgeStyle=orthogonalEdgeStyle;rounded=0;orthogonalLoop=1;jettySize=auto;html=1;" parent="1" source="2ux-XNGseXbHJTvCzGbi-27" target="2ux-XNGseXbHJTvCzGbi-1" edge="1">
          <mxGeometry relative="1" as="geometry">
            <Array as="points">
              <mxPoint x="760" y="320" />
              <mxPoint x="760" y="525" />
            </Array>
          </mxGeometry>
        </mxCell>
        <mxCell id="2ux-XNGseXbHJTvCzGbi-27" value="" style="html=1;dashed=0;whitespace=wrap;fillColor=#2875E2;strokeColor=#ffffff;points=[[0.005,0.63,0],[0.1,0.2,0],[0.9,0.2,0],[0.5,0,0],[0.995,0.63,0],[0.72,0.99,0],[0.5,1,0],[0.28,0.99,0]];shape=mxgraph.kubernetes.icon;prIcon=api" parent="1" vertex="1">
          <mxGeometry x="827" y="225" width="104.25" height="170" as="geometry" />
        </mxCell>
        <mxCell id="2ux-XNGseXbHJTvCzGbi-36" style="edgeStyle=orthogonalEdgeStyle;rounded=0;orthogonalLoop=1;jettySize=auto;html=1;" parent="1" source="2ux-XNGseXbHJTvCzGbi-28" target="2ux-XNGseXbHJTvCzGbi-21" edge="1">
          <mxGeometry relative="1" as="geometry" />
        </mxCell>
        <mxCell id="2ux-XNGseXbHJTvCzGbi-28" value="" style="html=1;dashed=0;whitespace=wrap;fillColor=#2875E2;strokeColor=#ffffff;points=[[0.005,0.63,0],[0.1,0.2,0],[0.9,0.2,0],[0.5,0,0],[0.995,0.63,0],[0.72,0.99,0],[0.5,1,0],[0.28,0.99,0]];shape=mxgraph.kubernetes.icon;prIcon=api" parent="1" vertex="1">
          <mxGeometry x="827.01" y="375" width="104.25" height="170" as="geometry" />
        </mxCell>
        <mxCell id="2ux-XNGseXbHJTvCzGbi-37" style="edgeStyle=orthogonalEdgeStyle;rounded=0;orthogonalLoop=1;jettySize=auto;html=1;" parent="1" source="2ux-XNGseXbHJTvCzGbi-29" edge="1">
          <mxGeometry relative="1" as="geometry">
            <mxPoint x="1100" y="610" as="targetPoint" />
          </mxGeometry>
        </mxCell>
        <mxCell id="2ux-XNGseXbHJTvCzGbi-38" style="edgeStyle=orthogonalEdgeStyle;rounded=0;orthogonalLoop=1;jettySize=auto;html=1;entryX=-0.01;entryY=0.625;entryDx=0;entryDy=0;entryPerimeter=0;" parent="1" source="2ux-XNGseXbHJTvCzGbi-29" target="2ux-XNGseXbHJTvCzGbi-18" edge="1">
          <mxGeometry relative="1" as="geometry">
            <Array as="points">
              <mxPoint x="1040" y="610" />
              <mxPoint x="1040" y="770" />
            </Array>
          </mxGeometry>
        </mxCell>
        <mxCell id="2ux-XNGseXbHJTvCzGbi-29" value="" style="html=1;dashed=0;whitespace=wrap;fillColor=#2875E2;strokeColor=#ffffff;points=[[0.005,0.63,0],[0.1,0.2,0],[0.9,0.2,0],[0.5,0,0],[0.995,0.63,0],[0.72,0.99,0],[0.5,1,0],[0.28,0.99,0]];shape=mxgraph.kubernetes.icon;prIcon=api" parent="1" vertex="1">
          <mxGeometry x="827" y="525" width="104.25" height="170" as="geometry" />
        </mxCell>
        <mxCell id="2ux-XNGseXbHJTvCzGbi-53" value="&lt;font style=&quot;font-size: 18px&quot;&gt;Cache Memory&lt;/font&gt;" style="text;html=1;strokeColor=none;fillColor=none;align=center;verticalAlign=middle;whiteSpace=wrap;rounded=0;" parent="1" vertex="1">
          <mxGeometry x="1111.21" y="830" width="40" height="20" as="geometry" />
        </mxCell>
        <mxCell id="2ux-XNGseXbHJTvCzGbi-60" style="edgeStyle=orthogonalEdgeStyle;rounded=0;orthogonalLoop=1;jettySize=auto;html=1;" parent="1" source="2ux-XNGseXbHJTvCzGbi-56" target="2ux-XNGseXbHJTvCzGbi-1" edge="1">
          <mxGeometry relative="1" as="geometry">
            <Array as="points">
              <mxPoint x="480" y="350" />
              <mxPoint x="480" y="525" />
            </Array>
          </mxGeometry>
        </mxCell>
        <mxCell id="2ux-XNGseXbHJTvCzGbi-56" value="" style="shape=image;html=1;verticalAlign=top;verticalLabelPosition=bottom;labelBackgroundColor=#ffffff;imageAspect=0;aspect=fixed;image=https://cdn2.iconfinder.com/data/icons/pittogrammi/142/04-128.png" parent="1" vertex="1">
          <mxGeometry x="270" y="310" width="80" height="80" as="geometry" />
        </mxCell>
        <mxCell id="2ux-XNGseXbHJTvCzGbi-61" style="edgeStyle=orthogonalEdgeStyle;rounded=0;orthogonalLoop=1;jettySize=auto;html=1;" parent="1" source="2ux-XNGseXbHJTvCzGbi-57" target="2ux-XNGseXbHJTvCzGbi-1" edge="1">
          <mxGeometry relative="1" as="geometry" />
        </mxCell>
        <mxCell id="2ux-XNGseXbHJTvCzGbi-57" value="" style="aspect=fixed;html=1;points=[];align=center;image;fontSize=12;image=img/lib/azure2/general/Browser.svg;" parent="1" vertex="1">
          <mxGeometry x="253.75" y="480" width="112.5" height="90" as="geometry" />
        </mxCell>
        <mxCell id="2ux-XNGseXbHJTvCzGbi-64" style="edgeStyle=orthogonalEdgeStyle;rounded=0;orthogonalLoop=1;jettySize=auto;html=1;" parent="1" source="2ux-XNGseXbHJTvCzGbi-58" target="2ux-XNGseXbHJTvCzGbi-1" edge="1">
          <mxGeometry relative="1" as="geometry">
            <Array as="points">
              <mxPoint x="480" y="702" />
              <mxPoint x="480" y="525" />
            </Array>
          </mxGeometry>
        </mxCell>
        <mxCell id="2ux-XNGseXbHJTvCzGbi-58" value="" style="outlineConnect=0;dashed=0;verticalLabelPosition=bottom;verticalAlign=top;align=center;html=1;shape=mxgraph.aws3.worker;fillColor=#D9A741;gradientColor=none;" parent="1" vertex="1">
          <mxGeometry x="280" y="670" width="60" height="63" as="geometry" />
        </mxCell>
        <mxCell id="2ux-XNGseXbHJTvCzGbi-65" value="&lt;font style=&quot;font-size: 18px&quot;&gt;Mobile&lt;/font&gt;" style="text;html=1;strokeColor=none;fillColor=none;align=center;verticalAlign=middle;whiteSpace=wrap;rounded=0;" parent="1" vertex="1">
          <mxGeometry x="290" y="410" width="40" height="20" as="geometry" />
        </mxCell>
        <mxCell id="2ux-XNGseXbHJTvCzGbi-67" value="&lt;font style=&quot;font-size: 18px&quot;&gt;Browser&lt;/font&gt;" style="text;html=1;strokeColor=none;fillColor=none;align=center;verticalAlign=middle;whiteSpace=wrap;rounded=0;" parent="1" vertex="1">
          <mxGeometry x="290" y="590" width="40" height="20" as="geometry" />
        </mxCell>
        <mxCell id="2ux-XNGseXbHJTvCzGbi-68" value="&lt;span style=&quot;font-size: 18px&quot;&gt;3rd Party Service&lt;/span&gt;" style="text;html=1;strokeColor=none;fillColor=none;align=center;verticalAlign=middle;whiteSpace=wrap;rounded=0;" parent="1" vertex="1">
          <mxGeometry x="290" y="760" width="40" height="20" as="geometry" />
        </mxCell>
        <mxCell id="2ux-XNGseXbHJTvCzGbi-69" value="&lt;font style=&quot;font-size: 18px&quot;&gt;Access Management&lt;/font&gt;" style="text;html=1;strokeColor=none;fillColor=none;align=center;verticalAlign=middle;whiteSpace=wrap;rounded=0;" parent="1" vertex="1">
          <mxGeometry x="855" y="375" width="40" height="20" as="geometry" />
        </mxCell>
        <mxCell id="2ux-XNGseXbHJTvCzGbi-70" value="&lt;font style=&quot;font-size: 18px&quot;&gt;Product Management&lt;/font&gt;" style="text;html=1;strokeColor=none;fillColor=none;align=center;verticalAlign=middle;whiteSpace=wrap;rounded=0;" parent="1" vertex="1">
          <mxGeometry x="855" y="525" width="40" height="20" as="geometry" />
        </mxCell>
        <mxCell id="2ux-XNGseXbHJTvCzGbi-71" value="&lt;font style=&quot;font-size: 18px&quot;&gt;Category Management&lt;/font&gt;" style="text;html=1;strokeColor=none;fillColor=none;align=center;verticalAlign=middle;whiteSpace=wrap;rounded=0;" parent="1" vertex="1">
          <mxGeometry x="859.13" y="675" width="40" height="20" as="geometry" />
        </mxCell>
        <mxCell id="2ux-XNGseXbHJTvCzGbi-82" value="" style="shape=image;verticalLabelPosition=bottom;labelBackgroundColor=#ffffff;verticalAlign=top;aspect=fixed;imageAspect=0;image=data:image/png,iVBORw0KGgoAAAANSUhEUgAAAOEAAADhCAMAAAAJbSJIAAAAflBMVEX///8AAADw8PC2trbMzMzi4uKkpKRhYWE9PT0cHBy9vb1PT0/6+vr19fXh4eGurq7FxcXR0dFvb2/o6OidnZ3a2tpkZGQoKCioqKg5OTmGhoZJSUmPj49VVVWxsbFFRUV6enozMzMWFhZ+fn4ODg4aGhqMjIxsbGwlJSVTU1MLjP2JAAAJmUlEQVR4nO2c53qjOhCGAQMu9GZc40Zs5/5v8AAzQhIlkH1IXM68f3YtHFkfKlMkUBSCIAiCIAiCIAiCIAiCIAiCIAiCIAiCIAiCIAiCIAiCIAiCIAiCIAiCIAji/0I0mc5VVZ1tAu3RTfkVot1JZUwn9qObMz7BWhWZPro9o2OqNU7Jo5s0LpOsrlDdRo9u1Jg4DX05+0e3akxuTNVhudzP2Qfv0c0aDz0FSWuvGJl+iAot59ENG40YJeHMszfw8bx4bLPGQ9uDIr56WlCwe2CjRsWAmXfhVj4Ahct38W3cxsISgfk/vIvBSEo5mTDrcNyu30uh+sFLom1ZMnsXhThKY15ioM1/l3mowdKZulXJERRe3ybC2IGgG/vstzs1duS6L9qrC/S7Q2i/h36bHF744f4wm1nL+CVFMj9N3a+8a+V6X/kXnJXgkodud03Piqu2wTvLvUkXTqsHtvUfaQTAkvUwZvVrLyhx1RDIlxmtRX78TV1PyqQmYVJdcW4tCufBiL+dBLoxYnVdBJYgwBIEcO3r255/Q/zbKDZzKrdPXG17Y0ztul+n6WG6K4yvsSor+i07nITgcKehaCY0pvxaNvaD5eR04Tt6WcLSHnrxH/+srv3chp4KuUb+R1vN2+Zr1tktlrXKH7T59PCL2qGi3zNI8HMbqSyozTwXl52woZBlIG/3pPAa/KNaBNf5cHfvF9+PXdMqVu1c4WrhY9facSWwvGUwXqa/rlAaJOjwXOqSt0IzJIXB+RQXCvMvKtp2fXOU3am8YH7l47lQyCddoj6BQuiyVJiYEHjchWEqKrQvYfJp5Ao36VYxz06ma1swPGCSjGKUslSl9QwK4ef3Qhm0VIwnRYWuejVze+mrOzPS9pZ3mNp7GOHmWtc/ij6cBIktVq5a4eGPFHqdCpdCCTrm3J5ICjfqOVOzYpQW5Vnu8mqxCgqtIi7LFVZhJ0ZpF82Jgi//DxRqMO9DKfDFPhRKoKezdoWOmvdtdP8oFZbL0zTMLWpsngLzgCvNcYPu+wIq5xX9qkJ7sTtAjJFZsTDHwDqchHkIRvHutyoMysZ7npH77c6mMDt+bDtxuPQc3cxv4k7TrpvNDqOYv1ToW2dh1t+nVT9i8pS7aejEzQQ3RLYWbTitlh9m9IkX/J5CY6nW2ZVtciqPhg3K6ACfb8Kf9ytsBxTOeMGvKUzWapPckCmLKf/slb/rM8dNGKTPrzBpREclYbKRNt2s426zZPs2mVjBsyt023qwDym2eHaF1RycX1aTyUdstQiqE0s288kVssxabgeh2Zpfl9MQeJTjm+dW6GCXpcLSIQa9hRudfEn65vVNqedWyFKJYrynaNUaeixjRe065wJver2O51aI0VGtW1hupjL0hokbxaHeNN7/qnD1FwojsBTbeqVmi3DN6NiqkRU6CwRvhebDoJ9NouJDcaWMgJMF7B6cyqKJ1lDo+FAPO7+kBTC0tl7hT03KS/0Km9sygHH+we2UFGq464FpD8XfVuN7Zubxcfm/IqnMc88lzdiCJaox+p7wLFH6YWNI0N84iLKbW/Ya2JDToA02KQJmAvGmxZLXsPFPxT/zohN2ssJGfLhhdworkr59dIYqhABm3TwBBb+fDcrgCwptvNGZCZfqqcj550CFGuvBlXzjGKefKZw1heAt+6FCNkSzlVRLnQEKmUAcCrUvVwxVOFYfVncaM+Y6C8myMI6FXigVfjsP2RBFgTxldYzjUBj4/Y0bdR6yIXrGJY6dY7nj5wVz8UuFyQf0Uzr5yPGEtdSphij+oc3cEtxMgdk8TOGIa+mS9eCcreHo/s0qF8FNBYXd9jDC2XtmO0DMLan8/YQt0P2NG9EeHi7CeCsB85UJZyB8SWGHT7NnsQDbHbKvUo+WFc2HKuzzaZgDM8CnQYREKv5F8+e+V4hk1Z2KTmXBRfT3L4MV9vil07J8kF8KCB6821Kzz61Fj8J0Ua9IcmDcwQr7Yov5RRsYWzT0TFoaAWmeAQrPwtiGjYTagj9Y4YD48KLWaY0PgT0fxGAMP+Wfmw7tQ+FUHW5JyT86G6zwn2L8XUuMj/BTOKAwbfm1QfOQbwZBXrUWu1jDFY6Vp2FU0wUU3v9VIT9JAAprx7K3wxV25tqiOBU/9+Xa1DsuWmy+NFLaCvNbexTiLa/8ELRGsq06/0Bhd740EKZgLV8qekHQgpmOCxRLh+NOo9Sw4NSv8BTgxDlgReB4ifsIyk9WmoLOnLcdsG4ckvNmVvTmiI2Q/CVYNL5XOHXYxNli82DkmM2KUKG/6j+x3blvEdeb+d2+RfIJF49QDqNfPMSJ96dHoaYEd6gIvAUHHVghDNAOXKG/DnfH/mNMXXtPFg4cXvLd3hM7eAA9jhNRsC046nsVshmJUZjXGDcs9sj/G+wDf6IZ0wEZjdb9Qxggg/cPMSgA182QekLhUV6/QlbRuby1eCybb95W60PxTU+ZXS1FF+rpZIw9YFyX4WAj3nv103MNw1jdWbsGKHSY46jxu5pXZOb1uB73IfNr60g56PmMHfJ8SNs+PvZhcx+/QyFbl7+KD9y/VdNK3jCFSnKC78LpGu433iUTVtxTLbccue38GhDptSkEw9pyFqN9D7ha5CCB1HYmbqDCyo+4inrr5JcOgXI4HhVN2Gn9kUJcS4efp6lyM+Xyy4wL64AwHaxQrsjdSxXN40rh4ubEzi64yiedvlUolSXizyhDzkQxRxfOo0QboV0HHexrJipcdym0WS6jXLYiMdtm+dzi29flQvePt/5B2nGujd272rk20cFIDpZlbatuNm5WwRaWJ1tnk3G+ihR3WVxCc7so/+4o3Kp9UbBhS0aEFR3B+9CZX5IVxyFmxaWy/+0gnC4XveuMdDZxK0y7RVUqnk3c9t4wEX0Vxx9jPL0ReHHs/VtF3edLq7Ei8jnm+dI/oXkMmjtBb3FGuC01zY9BN895m9/U9ZQkLQKls/ryQE1f7yB7lXiSnrcQrIazEhLpL/i8BVsta8/MpNJqAs/MbF/ymRmWUW4891QbjK/73BM+bdh8du3yLs+udT5/+DavVeh8hnTY1toL0PkccPoXT7L8BUndwrOkwfs8B5zV1xUMAX/xzPzfEmFU8b7vVOh6L0b2Nu/FUHRMEtXebdLY+X5hqpy+9H6a1/Ovu2l9x9DXo1s1KvUIX32j134gjRg/fbN3feWrzUkSuH8Xp1vAePd37inv/95EgiAIgiAIgiAIgiAIgiAIgiAIgiAIgiAIgiAIgiAIgiAIgiAIgiAIgiAI4pX5D3w2hRvXNPxlAAAAAElFTkSuQmCC;" parent="1" vertex="1">
          <mxGeometry x="1360" y="280" width="100" height="100" as="geometry" />
        </mxCell>
        <mxCell id="2ux-XNGseXbHJTvCzGbi-83" value="" style="aspect=fixed;html=1;points=[];align=center;image;fontSize=12;image=img/lib/mscae/Cache_Redis_Product.svg;" parent="1" vertex="1">
          <mxGeometry x="1360" y="410" width="95.23" height="80" as="geometry" />
        </mxCell>
        <mxCell id="2ux-XNGseXbHJTvCzGbi-84" value="" style="shape=image;html=1;verticalAlign=top;verticalLabelPosition=bottom;labelBackgroundColor=#ffffff;imageAspect=0;aspect=fixed;image=https://cdn4.iconfinder.com/data/icons/logos-brands-5/24/kibana-128.png" parent="1" vertex="1">
          <mxGeometry x="1370" y="640" width="80" height="80" as="geometry" />
        </mxCell>
        <mxCell id="2ux-XNGseXbHJTvCzGbi-85" value="" style="endArrow=none;dashed=1;html=1;" parent="1" edge="1">
          <mxGeometry width="50" height="50" relative="1" as="geometry">
            <mxPoint x="1280" y="880" as="sourcePoint" />
            <mxPoint x="1280" y="150" as="targetPoint" />
          </mxGeometry>
        </mxCell>
        <mxCell id="2ux-XNGseXbHJTvCzGbi-86" value="&lt;span style=&quot;font-size: 24px&quot;&gt;Miscellaneous&lt;/span&gt;" style="text;html=1;strokeColor=none;fillColor=none;align=center;verticalAlign=middle;whiteSpace=wrap;rounded=0;" parent="1" vertex="1">
          <mxGeometry x="1325" y="130" width="170" height="20" as="geometry" />
        </mxCell>
        <mxCell id="2ux-XNGseXbHJTvCzGbi-87" value="&lt;font style=&quot;font-size: 24px&quot;&gt;2020-12-16&lt;/font&gt;" style="text;html=1;strokeColor=none;fillColor=none;align=center;verticalAlign=middle;whiteSpace=wrap;rounded=0;" parent="1" vertex="1">
          <mxGeometry x="30" y="30" width="150" height="20" as="geometry" />
        </mxCell>
      </root>
    </mxGraphModel>
  </diagram>
  <diagram id="55SnCBv4KPeGzF6soHVa" name="CI/CD">
    <mxGraphModel dx="3685" dy="1053" grid="1" gridSize="10" guides="1" tooltips="1" connect="1" arrows="1" fold="1" page="1" pageScale="1" pageWidth="1654" pageHeight="1169" math="0" shadow="1">
      <root>
        <mxCell id="TD_IeNhZF-zL-fBLPQMa-0" />
        <mxCell id="TD_IeNhZF-zL-fBLPQMa-1" parent="TD_IeNhZF-zL-fBLPQMa-0" />
        <mxCell id="UE8QK9I7iu6HpLWwkE3T-0" value="&lt;font style=&quot;font-size: 18px&quot;&gt;commit and push&lt;/font&gt;" style="edgeStyle=orthogonalEdgeStyle;rounded=0;orthogonalLoop=1;jettySize=auto;html=1;" parent="TD_IeNhZF-zL-fBLPQMa-1" source="UE8QK9I7iu6HpLWwkE3T-1" edge="1">
          <mxGeometry relative="1" as="geometry">
            <mxPoint as="offset" />
            <mxPoint x="-1455" y="323.9999999999998" as="targetPoint" />
          </mxGeometry>
        </mxCell>
        <mxCell id="UE8QK9I7iu6HpLWwkE3T-1" value="" style="verticalLabelPosition=bottom;html=1;verticalAlign=top;align=center;strokeColor=none;fillColor=#00BEF2;shape=mxgraph.azure.git_repository;" parent="TD_IeNhZF-zL-fBLPQMa-1" vertex="1">
          <mxGeometry x="-1480" y="190" width="50" height="50" as="geometry" />
        </mxCell>
        <mxCell id="UE8QK9I7iu6HpLWwkE3T-2" value="&lt;font style=&quot;font-size: 18px&quot;&gt;trigger event from webhook&lt;/font&gt;" style="edgeStyle=orthogonalEdgeStyle;rounded=0;orthogonalLoop=1;jettySize=auto;html=1;" parent="TD_IeNhZF-zL-fBLPQMa-1" target="UE8QK9I7iu6HpLWwkE3T-5" edge="1">
          <mxGeometry relative="1" as="geometry">
            <mxPoint x="-1455" y="403.9999999999998" as="sourcePoint" />
          </mxGeometry>
        </mxCell>
        <mxCell id="UE8QK9I7iu6HpLWwkE3T-4" value="&lt;font style=&quot;font-size: 18px&quot;&gt;read jenkins file&lt;/font&gt;" style="edgeStyle=orthogonalEdgeStyle;rounded=0;orthogonalLoop=1;jettySize=auto;html=1;" parent="TD_IeNhZF-zL-fBLPQMa-1" source="UE8QK9I7iu6HpLWwkE3T-5" target="UE8QK9I7iu6HpLWwkE3T-10" edge="1">
          <mxGeometry relative="1" as="geometry" />
        </mxCell>
        <mxCell id="UE8QK9I7iu6HpLWwkE3T-5" value="" style="shape=image;html=1;verticalAlign=top;verticalLabelPosition=bottom;labelBackgroundColor=#ffffff;imageAspect=0;aspect=fixed;image=https://cdn4.iconfinder.com/data/icons/logos-brands-5/24/jenkins-128.png" parent="TD_IeNhZF-zL-fBLPQMa-1" vertex="1">
          <mxGeometry x="-1495" y="464" width="79" height="79" as="geometry" />
        </mxCell>
        <mxCell id="UE8QK9I7iu6HpLWwkE3T-6" value="" style="aspect=fixed;html=1;points=[];align=center;image;fontSize=12;image=img/lib/mscae/Docker.svg;" parent="TD_IeNhZF-zL-fBLPQMa-1" vertex="1">
          <mxGeometry x="-560" y="470.75" width="79.88" height="65.5" as="geometry" />
        </mxCell>
        <mxCell id="UE8QK9I7iu6HpLWwkE3T-7" value="" style="edgeStyle=orthogonalEdgeStyle;rounded=0;orthogonalLoop=1;jettySize=auto;html=1;" parent="TD_IeNhZF-zL-fBLPQMa-1" source="UE8QK9I7iu6HpLWwkE3T-10" target="UE8QK9I7iu6HpLWwkE3T-16" edge="1">
          <mxGeometry relative="1" as="geometry" />
        </mxCell>
        <mxCell id="UE8QK9I7iu6HpLWwkE3T-8" style="edgeStyle=orthogonalEdgeStyle;rounded=0;orthogonalLoop=1;jettySize=auto;html=1;entryX=0;entryY=0.5;entryDx=0;entryDy=0;" parent="TD_IeNhZF-zL-fBLPQMa-1" source="UE8QK9I7iu6HpLWwkE3T-10" target="UE8QK9I7iu6HpLWwkE3T-13" edge="1">
          <mxGeometry relative="1" as="geometry">
            <Array as="points">
              <mxPoint x="-920" y="502" />
              <mxPoint x="-920" y="420" />
            </Array>
          </mxGeometry>
        </mxCell>
        <mxCell id="UE8QK9I7iu6HpLWwkE3T-9" style="edgeStyle=orthogonalEdgeStyle;rounded=0;orthogonalLoop=1;jettySize=auto;html=1;entryX=0;entryY=0.5;entryDx=0;entryDy=0;" parent="TD_IeNhZF-zL-fBLPQMa-1" source="UE8QK9I7iu6HpLWwkE3T-10" target="UE8QK9I7iu6HpLWwkE3T-18" edge="1">
          <mxGeometry relative="1" as="geometry">
            <Array as="points">
              <mxPoint x="-920" y="502" />
              <mxPoint x="-920" y="584" />
              <mxPoint x="-860" y="584" />
            </Array>
            <mxPoint x="-966" y="584.5000000000002" as="targetPoint" />
          </mxGeometry>
        </mxCell>
        <mxCell id="UE8QK9I7iu6HpLWwkE3T-10" value="&lt;font style=&quot;font-size: 18px&quot;&gt;prepare branch and tag information&lt;/font&gt;" style="rounded=1;whiteSpace=wrap;html=1;" parent="TD_IeNhZF-zL-fBLPQMa-1" vertex="1">
          <mxGeometry x="-1176" y="474" width="156" height="58" as="geometry" />
        </mxCell>
        <mxCell id="UE8QK9I7iu6HpLWwkE3T-51" value="&lt;font style=&quot;font-size: 18px&quot;&gt;image create&lt;/font&gt;" style="edgeStyle=orthogonalEdgeStyle;rounded=0;orthogonalLoop=1;jettySize=auto;html=1;" parent="TD_IeNhZF-zL-fBLPQMa-1" source="UE8QK9I7iu6HpLWwkE3T-13" edge="1">
          <mxGeometry x="-0.3532" relative="1" as="geometry">
            <mxPoint x="-520" y="463.9999999999998" as="targetPoint" />
            <mxPoint as="offset" />
          </mxGeometry>
        </mxCell>
        <mxCell id="UE8QK9I7iu6HpLWwkE3T-13" value="&lt;font style=&quot;font-size: 18px&quot;&gt;prepare branch and tag information&lt;/font&gt;" style="rounded=1;whiteSpace=wrap;html=1;" parent="TD_IeNhZF-zL-fBLPQMa-1" vertex="1">
          <mxGeometry x="-860" y="384" width="140" height="65.5" as="geometry" />
        </mxCell>
        <mxCell id="UE8QK9I7iu6HpLWwkE3T-55" value="&lt;font style=&quot;font-size: 18px&quot;&gt;image create&lt;/font&gt;" style="edgeStyle=orthogonalEdgeStyle;rounded=0;orthogonalLoop=1;jettySize=auto;html=1;entryX=-0.014;entryY=0.491;entryDx=0;entryDy=0;entryPerimeter=0;" parent="TD_IeNhZF-zL-fBLPQMa-1" source="UE8QK9I7iu6HpLWwkE3T-16" target="UE8QK9I7iu6HpLWwkE3T-6" edge="1">
          <mxGeometry relative="1" as="geometry" />
        </mxCell>
        <mxCell id="UE8QK9I7iu6HpLWwkE3T-16" value="&lt;font style=&quot;font-size: 18px&quot;&gt;prepare branch and tag information&lt;/font&gt;" style="rounded=1;whiteSpace=wrap;html=1;" parent="TD_IeNhZF-zL-fBLPQMa-1" vertex="1">
          <mxGeometry x="-860" y="474" width="140" height="58" as="geometry" />
        </mxCell>
        <mxCell id="UE8QK9I7iu6HpLWwkE3T-52" value="&lt;font style=&quot;font-size: 18px&quot;&gt;image create&lt;/font&gt;" style="edgeStyle=orthogonalEdgeStyle;rounded=0;orthogonalLoop=1;jettySize=auto;html=1;entryX=0.5;entryY=1;entryDx=0;entryDy=0;" parent="TD_IeNhZF-zL-fBLPQMa-1" source="UE8QK9I7iu6HpLWwkE3T-18" target="UE8QK9I7iu6HpLWwkE3T-50" edge="1">
          <mxGeometry x="-0.1918" relative="1" as="geometry">
            <mxPoint x="1" as="offset" />
          </mxGeometry>
        </mxCell>
        <mxCell id="UE8QK9I7iu6HpLWwkE3T-18" value="&lt;font style=&quot;font-size: 18px&quot;&gt;prepare branch and tag information&lt;/font&gt;" style="rounded=1;whiteSpace=wrap;html=1;" parent="TD_IeNhZF-zL-fBLPQMa-1" vertex="1">
          <mxGeometry x="-860" y="554" width="140" height="63.5" as="geometry" />
        </mxCell>
        <mxCell id="UE8QK9I7iu6HpLWwkE3T-20" value="&lt;font style=&quot;font-size: 18px&quot;&gt;Jenkins&lt;/font&gt;" style="text;html=1;strokeColor=none;fillColor=none;align=center;verticalAlign=middle;whiteSpace=wrap;rounded=0;" parent="TD_IeNhZF-zL-fBLPQMa-1" vertex="1">
          <mxGeometry x="-1480" y="549" width="40" height="20" as="geometry" />
        </mxCell>
        <mxCell id="UE8QK9I7iu6HpLWwkE3T-21" value="&lt;font style=&quot;font-size: 24px&quot;&gt;&lt;b&gt;&lt;u&gt;Build&lt;/u&gt;&lt;/b&gt;&lt;/font&gt;" style="text;html=1;strokeColor=none;fillColor=none;align=center;verticalAlign=middle;whiteSpace=wrap;rounded=0;" parent="TD_IeNhZF-zL-fBLPQMa-1" vertex="1">
          <mxGeometry x="-1189.82" y="204" width="40" height="20" as="geometry" />
        </mxCell>
        <mxCell id="UE8QK9I7iu6HpLWwkE3T-22" style="edgeStyle=orthogonalEdgeStyle;rounded=0;orthogonalLoop=1;jettySize=auto;html=1;entryX=0;entryY=0.5;entryDx=0;entryDy=0;" parent="TD_IeNhZF-zL-fBLPQMa-1" source="UE8QK9I7iu6HpLWwkE3T-24" target="UE8QK9I7iu6HpLWwkE3T-30" edge="1">
          <mxGeometry relative="1" as="geometry" />
        </mxCell>
        <mxCell id="UE8QK9I7iu6HpLWwkE3T-23" value="&lt;font style=&quot;font-size: 18px&quot;&gt;docker run to k8s&lt;/font&gt;" style="edgeLabel;html=1;align=center;verticalAlign=middle;resizable=0;points=[];" parent="UE8QK9I7iu6HpLWwkE3T-22" vertex="1" connectable="0">
          <mxGeometry x="-0.1139" y="2" relative="1" as="geometry">
            <mxPoint x="22.11" y="1.93" as="offset" />
          </mxGeometry>
        </mxCell>
        <mxCell id="UE8QK9I7iu6HpLWwkE3T-24" value="" style="shape=image;html=1;verticalAlign=top;verticalLabelPosition=bottom;labelBackgroundColor=#ffffff;imageAspect=0;aspect=fixed;image=https://cdn4.iconfinder.com/data/icons/logos-brands-5/24/jenkins-128.png" parent="TD_IeNhZF-zL-fBLPQMa-1" vertex="1">
          <mxGeometry x="-1499.5" y="744" width="79" height="79" as="geometry" />
        </mxCell>
        <mxCell id="UE8QK9I7iu6HpLWwkE3T-25" value="&lt;font style=&quot;font-size: 18px&quot;&gt;get image&lt;/font&gt;" style="edgeStyle=orthogonalEdgeStyle;rounded=0;orthogonalLoop=1;jettySize=auto;html=1;entryX=0.001;entryY=0.503;entryDx=0;entryDy=0;entryPerimeter=0;" parent="TD_IeNhZF-zL-fBLPQMa-1" source="UE8QK9I7iu6HpLWwkE3T-26" target="UE8QK9I7iu6HpLWwkE3T-28" edge="1">
          <mxGeometry x="0.0963" relative="1" as="geometry">
            <Array as="points">
              <mxPoint x="-1455" y="907" />
            </Array>
            <mxPoint as="offset" />
          </mxGeometry>
        </mxCell>
        <mxCell id="UE8QK9I7iu6HpLWwkE3T-26" value="&lt;font style=&quot;font-size: 18px&quot;&gt;Jenkins&lt;/font&gt;" style="text;html=1;strokeColor=none;fillColor=none;align=center;verticalAlign=middle;whiteSpace=wrap;rounded=0;" parent="TD_IeNhZF-zL-fBLPQMa-1" vertex="1">
          <mxGeometry x="-1475.5" y="829.25" width="40" height="20" as="geometry" />
        </mxCell>
        <mxCell id="UE8QK9I7iu6HpLWwkE3T-27" value="&lt;font style=&quot;font-size: 24px&quot;&gt;&lt;b&gt;&lt;u&gt;Deploy&lt;/u&gt;&lt;/b&gt;&lt;/font&gt;" style="text;html=1;strokeColor=none;fillColor=none;align=center;verticalAlign=middle;whiteSpace=wrap;rounded=0;" parent="TD_IeNhZF-zL-fBLPQMa-1" vertex="1">
          <mxGeometry x="-1176" y="666" width="40" height="20" as="geometry" />
        </mxCell>
        <mxCell id="UE8QK9I7iu6HpLWwkE3T-28" value="" style="aspect=fixed;html=1;points=[];align=center;image;fontSize=12;image=img/lib/mscae/Docker.svg;" parent="TD_IeNhZF-zL-fBLPQMa-1" vertex="1">
          <mxGeometry x="-1016" y="879" width="79.88" height="65.5" as="geometry" />
        </mxCell>
        <mxCell id="UE8QK9I7iu6HpLWwkE3T-29" value="&lt;font style=&quot;font-size: 18px&quot;&gt;Docker hub&lt;/font&gt;" style="text;html=1;strokeColor=none;fillColor=none;align=center;verticalAlign=middle;whiteSpace=wrap;rounded=0;" parent="TD_IeNhZF-zL-fBLPQMa-1" vertex="1">
          <mxGeometry x="-1050" y="954" width="130.18" height="20" as="geometry" />
        </mxCell>
        <mxCell id="UE8QK9I7iu6HpLWwkE3T-30" value="" style="rounded=1;whiteSpace=wrap;html=1;" parent="TD_IeNhZF-zL-fBLPQMa-1" vertex="1">
          <mxGeometry x="-860" y="679" width="250" height="210" as="geometry" />
        </mxCell>
        <mxCell id="UE8QK9I7iu6HpLWwkE3T-31" value="" style="aspect=fixed;html=1;points=[];align=center;image;fontSize=12;image=img/lib/mscae/Kubernetes.svg;" parent="TD_IeNhZF-zL-fBLPQMa-1" vertex="1">
          <mxGeometry x="-760" y="690.75" width="50" height="48" as="geometry" />
        </mxCell>
        <mxCell id="UE8QK9I7iu6HpLWwkE3T-32" value="" style="shape=hexagon;perimeter=hexagonPerimeter2;whiteSpace=wrap;html=1;fixedSize=1;rotation=90;" parent="TD_IeNhZF-zL-fBLPQMa-1" vertex="1">
          <mxGeometry x="-860" y="741.25" width="120" height="110" as="geometry" />
        </mxCell>
        <mxCell id="UE8QK9I7iu6HpLWwkE3T-33" value="" style="html=1;dashed=0;whitespace=wrap;fillColor=#2875E2;strokeColor=#ffffff;points=[[0.005,0.63,0],[0.1,0.2,0],[0.9,0.2,0],[0.5,0,0],[0.995,0.63,0],[0.72,0.99,0],[0.5,1,0],[0.28,0.99,0]];shape=mxgraph.kubernetes.icon;prIcon=node" parent="TD_IeNhZF-zL-fBLPQMa-1" vertex="1">
          <mxGeometry x="-850" y="752.25" width="50" height="48" as="geometry" />
        </mxCell>
        <mxCell id="UE8QK9I7iu6HpLWwkE3T-34" value="" style="html=1;dashed=0;whitespace=wrap;fillColor=#2875E2;strokeColor=#ffffff;points=[[0.005,0.63,0],[0.1,0.2,0],[0.9,0.2,0],[0.5,0,0],[0.995,0.63,0],[0.72,0.99,0],[0.5,1,0],[0.28,0.99,0]];shape=mxgraph.kubernetes.icon;prIcon=node" parent="TD_IeNhZF-zL-fBLPQMa-1" vertex="1">
          <mxGeometry x="-800" y="752.25" width="50" height="48" as="geometry" />
        </mxCell>
        <mxCell id="UE8QK9I7iu6HpLWwkE3T-35" value="" style="html=1;dashed=0;whitespace=wrap;fillColor=#2875E2;strokeColor=#ffffff;points=[[0.005,0.63,0],[0.1,0.2,0],[0.9,0.2,0],[0.5,0,0],[0.995,0.63,0],[0.72,0.99,0],[0.5,1,0],[0.28,0.99,0]];shape=mxgraph.kubernetes.icon;prIcon=node" parent="TD_IeNhZF-zL-fBLPQMa-1" vertex="1">
          <mxGeometry x="-850" y="796.25" width="50" height="48" as="geometry" />
        </mxCell>
        <mxCell id="UE8QK9I7iu6HpLWwkE3T-36" value="" style="html=1;dashed=0;whitespace=wrap;fillColor=#2875E2;strokeColor=#ffffff;points=[[0.005,0.63,0],[0.1,0.2,0],[0.9,0.2,0],[0.5,0,0],[0.995,0.63,0],[0.72,0.99,0],[0.5,1,0],[0.28,0.99,0]];shape=mxgraph.kubernetes.icon;prIcon=node" parent="TD_IeNhZF-zL-fBLPQMa-1" vertex="1">
          <mxGeometry x="-800" y="796.25" width="50" height="48" as="geometry" />
        </mxCell>
        <mxCell id="UE8QK9I7iu6HpLWwkE3T-37" value="Pods" style="text;html=1;strokeColor=none;fillColor=none;align=center;verticalAlign=middle;whiteSpace=wrap;rounded=0;" parent="TD_IeNhZF-zL-fBLPQMa-1" vertex="1">
          <mxGeometry x="-820" y="709" width="40" height="20" as="geometry" />
        </mxCell>
        <mxCell id="UE8QK9I7iu6HpLWwkE3T-38" value="" style="shape=hexagon;perimeter=hexagonPerimeter2;whiteSpace=wrap;html=1;fixedSize=1;rotation=90;" parent="TD_IeNhZF-zL-fBLPQMa-1" vertex="1">
          <mxGeometry x="-729" y="741.25" width="120" height="110" as="geometry" />
        </mxCell>
        <mxCell id="UE8QK9I7iu6HpLWwkE3T-39" value="" style="html=1;dashed=0;whitespace=wrap;fillColor=#2875E2;strokeColor=#ffffff;points=[[0.005,0.63,0],[0.1,0.2,0],[0.9,0.2,0],[0.5,0,0],[0.995,0.63,0],[0.72,0.99,0],[0.5,1,0],[0.28,0.99,0]];shape=mxgraph.kubernetes.icon;prIcon=node" parent="TD_IeNhZF-zL-fBLPQMa-1" vertex="1">
          <mxGeometry x="-719" y="752.25" width="50" height="48" as="geometry" />
        </mxCell>
        <mxCell id="UE8QK9I7iu6HpLWwkE3T-40" value="" style="html=1;dashed=0;whitespace=wrap;fillColor=#2875E2;strokeColor=#ffffff;points=[[0.005,0.63,0],[0.1,0.2,0],[0.9,0.2,0],[0.5,0,0],[0.995,0.63,0],[0.72,0.99,0],[0.5,1,0],[0.28,0.99,0]];shape=mxgraph.kubernetes.icon;prIcon=node" parent="TD_IeNhZF-zL-fBLPQMa-1" vertex="1">
          <mxGeometry x="-669" y="752.25" width="50" height="48" as="geometry" />
        </mxCell>
        <mxCell id="UE8QK9I7iu6HpLWwkE3T-41" value="" style="html=1;dashed=0;whitespace=wrap;fillColor=#2875E2;strokeColor=#ffffff;points=[[0.005,0.63,0],[0.1,0.2,0],[0.9,0.2,0],[0.5,0,0],[0.995,0.63,0],[0.72,0.99,0],[0.5,1,0],[0.28,0.99,0]];shape=mxgraph.kubernetes.icon;prIcon=node" parent="TD_IeNhZF-zL-fBLPQMa-1" vertex="1">
          <mxGeometry x="-719" y="796.25" width="50" height="48" as="geometry" />
        </mxCell>
        <mxCell id="UE8QK9I7iu6HpLWwkE3T-42" value="" style="html=1;dashed=0;whitespace=wrap;fillColor=#2875E2;strokeColor=#ffffff;points=[[0.005,0.63,0],[0.1,0.2,0],[0.9,0.2,0],[0.5,0,0],[0.995,0.63,0],[0.72,0.99,0],[0.5,1,0],[0.28,0.99,0]];shape=mxgraph.kubernetes.icon;prIcon=node" parent="TD_IeNhZF-zL-fBLPQMa-1" vertex="1">
          <mxGeometry x="-669" y="796.25" width="50" height="48" as="geometry" />
        </mxCell>
        <mxCell id="UE8QK9I7iu6HpLWwkE3T-43" value="Pods" style="text;html=1;strokeColor=none;fillColor=none;align=center;verticalAlign=middle;whiteSpace=wrap;rounded=0;" parent="TD_IeNhZF-zL-fBLPQMa-1" vertex="1">
          <mxGeometry x="-689" y="709" width="40" height="20" as="geometry" />
        </mxCell>
        <mxCell id="UE8QK9I7iu6HpLWwkE3T-44" value="Node" style="text;html=1;strokeColor=none;fillColor=none;align=center;verticalAlign=middle;whiteSpace=wrap;rounded=0;" parent="TD_IeNhZF-zL-fBLPQMa-1" vertex="1">
          <mxGeometry x="-820" y="859" width="40" height="20" as="geometry" />
        </mxCell>
        <mxCell id="UE8QK9I7iu6HpLWwkE3T-45" value="Node" style="text;html=1;strokeColor=none;fillColor=none;align=center;verticalAlign=middle;whiteSpace=wrap;rounded=0;" parent="TD_IeNhZF-zL-fBLPQMa-1" vertex="1">
          <mxGeometry x="-689" y="859" width="40" height="20" as="geometry" />
        </mxCell>
        <mxCell id="UE8QK9I7iu6HpLWwkE3T-46" value="&lt;font style=&quot;font-size: 18px&quot;&gt;1&lt;/font&gt;" style="text;html=1;strokeColor=none;fillColor=none;align=center;verticalAlign=middle;whiteSpace=wrap;rounded=0;" parent="TD_IeNhZF-zL-fBLPQMa-1" vertex="1">
          <mxGeometry x="-1520" y="869" width="40" height="20" as="geometry" />
        </mxCell>
        <mxCell id="UE8QK9I7iu6HpLWwkE3T-47" value="&lt;font style=&quot;font-size: 18px&quot;&gt;2&lt;/font&gt;" style="text;html=1;strokeColor=none;fillColor=none;align=center;verticalAlign=middle;whiteSpace=wrap;rounded=0;" parent="TD_IeNhZF-zL-fBLPQMa-1" vertex="1">
          <mxGeometry x="-1286" y="738.25" width="40" height="20" as="geometry" />
        </mxCell>
        <mxCell id="UE8QK9I7iu6HpLWwkE3T-49" value="" style="aspect=fixed;html=1;points=[];align=center;image;fontSize=12;image=img/lib/azure2/general/TFS_VC_Repository.svg;" parent="TD_IeNhZF-zL-fBLPQMa-1" vertex="1">
          <mxGeometry x="-1489.5" y="330" width="68" height="68" as="geometry" />
        </mxCell>
        <mxCell id="UE8QK9I7iu6HpLWwkE3T-50" value="&lt;font style=&quot;font-size: 18px&quot;&gt;Docker hub&lt;/font&gt;" style="text;html=1;strokeColor=none;fillColor=none;align=center;verticalAlign=middle;whiteSpace=wrap;rounded=0;" parent="TD_IeNhZF-zL-fBLPQMa-1" vertex="1">
          <mxGeometry x="-585.15" y="543" width="130.18" height="20" as="geometry" />
        </mxCell>
        <mxCell id="SMTSfqzMadLvDkDrTgBu-0" value="&lt;font style=&quot;font-size: 24px&quot;&gt;2020-12-16&lt;/font&gt;" style="text;html=1;strokeColor=none;fillColor=none;align=center;verticalAlign=middle;whiteSpace=wrap;rounded=0;" parent="TD_IeNhZF-zL-fBLPQMa-1" vertex="1">
          <mxGeometry x="-1610" y="50" width="150" height="20" as="geometry" />
        </mxCell>
        <mxCell id="Slbmc5x53unp67SCAp5X-0" value="" style="endArrow=none;dashed=1;html=1;" parent="TD_IeNhZF-zL-fBLPQMa-1" edge="1">
          <mxGeometry width="50" height="50" relative="1" as="geometry">
            <mxPoint x="-400" y="950" as="sourcePoint" />
            <mxPoint x="-400" y="159" as="targetPoint" />
          </mxGeometry>
        </mxCell>
        <mxCell id="HUuItKbVjGI10uN7tAjA-0" value="" style="outlineConnect=0;dashed=0;verticalLabelPosition=bottom;verticalAlign=top;align=center;html=1;shape=mxgraph.aws3.elasticsearch_service;fillColor=#F58534;gradientColor=none;" parent="TD_IeNhZF-zL-fBLPQMa-1" vertex="1">
          <mxGeometry x="-266.1300000000001" y="400" width="67.5" height="81" as="geometry" />
        </mxCell>
        <mxCell id="HUuItKbVjGI10uN7tAjA-1" value="" style="shape=image;verticalLabelPosition=bottom;labelBackgroundColor=#ffffff;verticalAlign=top;aspect=fixed;imageAspect=0;image=data:image/png,iVBORw0KGgoAAAANSUhEUgAAAOEAAADhCAMAAAAJbSJIAAAAflBMVEX///8AAADw8PC2trbMzMzi4uKkpKRhYWE9PT0cHBy9vb1PT0/6+vr19fXh4eGurq7FxcXR0dFvb2/o6OidnZ3a2tpkZGQoKCioqKg5OTmGhoZJSUmPj49VVVWxsbFFRUV6enozMzMWFhZ+fn4ODg4aGhqMjIxsbGwlJSVTU1MLjP2JAAAJmUlEQVR4nO2c53qjOhCGAQMu9GZc40Zs5/5v8AAzQhIlkH1IXM68f3YtHFkfKlMkUBSCIAiCIAiCIAiCIAiCIAiCIAiCIAiCIAiCIAiCIAiCIAiCIAiCIAiCIAji/0I0mc5VVZ1tAu3RTfkVot1JZUwn9qObMz7BWhWZPro9o2OqNU7Jo5s0LpOsrlDdRo9u1Jg4DX05+0e3akxuTNVhudzP2Qfv0c0aDz0FSWuvGJl+iAot59ENG40YJeHMszfw8bx4bLPGQ9uDIr56WlCwe2CjRsWAmXfhVj4Ahct38W3cxsISgfk/vIvBSEo5mTDrcNyu30uh+sFLom1ZMnsXhThKY15ioM1/l3mowdKZulXJERRe3ybC2IGgG/vstzs1duS6L9qrC/S7Q2i/h36bHF744f4wm1nL+CVFMj9N3a+8a+V6X/kXnJXgkodud03Piqu2wTvLvUkXTqsHtvUfaQTAkvUwZvVrLyhx1RDIlxmtRX78TV1PyqQmYVJdcW4tCufBiL+dBLoxYnVdBJYgwBIEcO3r255/Q/zbKDZzKrdPXG17Y0ztul+n6WG6K4yvsSor+i07nITgcKehaCY0pvxaNvaD5eR04Tt6WcLSHnrxH/+srv3chp4KuUb+R1vN2+Zr1tktlrXKH7T59PCL2qGi3zNI8HMbqSyozTwXl52woZBlIG/3pPAa/KNaBNf5cHfvF9+PXdMqVu1c4WrhY9facSWwvGUwXqa/rlAaJOjwXOqSt0IzJIXB+RQXCvMvKtp2fXOU3am8YH7l47lQyCddoj6BQuiyVJiYEHjchWEqKrQvYfJp5Ao36VYxz06ma1swPGCSjGKUslSl9QwK4ef3Qhm0VIwnRYWuejVze+mrOzPS9pZ3mNp7GOHmWtc/ij6cBIktVq5a4eGPFHqdCpdCCTrm3J5ICjfqOVOzYpQW5Vnu8mqxCgqtIi7LFVZhJ0ZpF82Jgi//DxRqMO9DKfDFPhRKoKezdoWOmvdtdP8oFZbL0zTMLWpsngLzgCvNcYPu+wIq5xX9qkJ7sTtAjJFZsTDHwDqchHkIRvHutyoMysZ7npH77c6mMDt+bDtxuPQc3cxv4k7TrpvNDqOYv1ToW2dh1t+nVT9i8pS7aejEzQQ3RLYWbTitlh9m9IkX/J5CY6nW2ZVtciqPhg3K6ACfb8Kf9ytsBxTOeMGvKUzWapPckCmLKf/slb/rM8dNGKTPrzBpREclYbKRNt2s426zZPs2mVjBsyt023qwDym2eHaF1RycX1aTyUdstQiqE0s288kVssxabgeh2Zpfl9MQeJTjm+dW6GCXpcLSIQa9hRudfEn65vVNqedWyFKJYrynaNUaeixjRe065wJver2O51aI0VGtW1hupjL0hokbxaHeNN7/qnD1FwojsBTbeqVmi3DN6NiqkRU6CwRvhebDoJ9NouJDcaWMgJMF7B6cyqKJ1lDo+FAPO7+kBTC0tl7hT03KS/0Km9sygHH+we2UFGq464FpD8XfVuN7Zubxcfm/IqnMc88lzdiCJaox+p7wLFH6YWNI0N84iLKbW/Ya2JDToA02KQJmAvGmxZLXsPFPxT/zohN2ssJGfLhhdworkr59dIYqhABm3TwBBb+fDcrgCwptvNGZCZfqqcj550CFGuvBlXzjGKefKZw1heAt+6FCNkSzlVRLnQEKmUAcCrUvVwxVOFYfVncaM+Y6C8myMI6FXigVfjsP2RBFgTxldYzjUBj4/Y0bdR6yIXrGJY6dY7nj5wVz8UuFyQf0Uzr5yPGEtdSphij+oc3cEtxMgdk8TOGIa+mS9eCcreHo/s0qF8FNBYXd9jDC2XtmO0DMLan8/YQt0P2NG9EeHi7CeCsB85UJZyB8SWGHT7NnsQDbHbKvUo+WFc2HKuzzaZgDM8CnQYREKv5F8+e+V4hk1Z2KTmXBRfT3L4MV9vil07J8kF8KCB6821Kzz61Fj8J0Ua9IcmDcwQr7Yov5RRsYWzT0TFoaAWmeAQrPwtiGjYTagj9Y4YD48KLWaY0PgT0fxGAMP+Wfmw7tQ+FUHW5JyT86G6zwn2L8XUuMj/BTOKAwbfm1QfOQbwZBXrUWu1jDFY6Vp2FU0wUU3v9VIT9JAAprx7K3wxV25tqiOBU/9+Xa1DsuWmy+NFLaCvNbexTiLa/8ELRGsq06/0Bhd740EKZgLV8qekHQgpmOCxRLh+NOo9Sw4NSv8BTgxDlgReB4ifsIyk9WmoLOnLcdsG4ckvNmVvTmiI2Q/CVYNL5XOHXYxNli82DkmM2KUKG/6j+x3blvEdeb+d2+RfIJF49QDqNfPMSJ96dHoaYEd6gIvAUHHVghDNAOXKG/DnfH/mNMXXtPFg4cXvLd3hM7eAA9jhNRsC046nsVshmJUZjXGDcs9sj/G+wDf6IZ0wEZjdb9Qxggg/cPMSgA182QekLhUV6/QlbRuby1eCybb95W60PxTU+ZXS1FF+rpZIw9YFyX4WAj3nv103MNw1jdWbsGKHSY46jxu5pXZOb1uB73IfNr60g56PmMHfJ8SNs+PvZhcx+/QyFbl7+KD9y/VdNK3jCFSnKC78LpGu433iUTVtxTLbccue38GhDptSkEw9pyFqN9D7ha5CCB1HYmbqDCyo+4inrr5JcOgXI4HhVN2Gn9kUJcS4efp6lyM+Xyy4wL64AwHaxQrsjdSxXN40rh4ubEzi64yiedvlUolSXizyhDzkQxRxfOo0QboV0HHexrJipcdym0WS6jXLYiMdtm+dzi29flQvePt/5B2nGujd272rk20cFIDpZlbatuNm5WwRaWJ1tnk3G+ihR3WVxCc7so/+4o3Kp9UbBhS0aEFR3B+9CZX5IVxyFmxaWy/+0gnC4XveuMdDZxK0y7RVUqnk3c9t4wEX0Vxx9jPL0ReHHs/VtF3edLq7Ei8jnm+dI/oXkMmjtBb3FGuC01zY9BN895m9/U9ZQkLQKls/ryQE1f7yB7lXiSnrcQrIazEhLpL/i8BVsta8/MpNJqAs/MbF/ymRmWUW4891QbjK/73BM+bdh8du3yLs+udT5/+DavVeh8hnTY1toL0PkccPoXT7L8BUndwrOkwfs8B5zV1xUMAX/xzPzfEmFU8b7vVOh6L0b2Nu/FUHRMEtXebdLY+X5hqpy+9H6a1/Ovu2l9x9DXo1s1KvUIX32j134gjRg/fbN3feWrzUkSuH8Xp1vAePd37inv/95EgiAIgiAIgiAIgiAIgiAIgiAIgiAIgiAIgiAIgiAIgiAIgiAIgiAIgiAI4pX5D3w2hRvXNPxlAAAAAElFTkSuQmCC;" parent="TD_IeNhZF-zL-fBLPQMa-1" vertex="1">
          <mxGeometry x="-280" y="160" width="100" height="100" as="geometry" />
        </mxCell>
        <mxCell id="HUuItKbVjGI10uN7tAjA-2" value="" style="aspect=fixed;html=1;points=[];align=center;image;fontSize=12;image=img/lib/mscae/Cache_Redis_Product.svg;" parent="TD_IeNhZF-zL-fBLPQMa-1" vertex="1">
          <mxGeometry x="-280" y="290" width="95.23" height="80" as="geometry" />
        </mxCell>
        <mxCell id="HUuItKbVjGI10uN7tAjA-3" value="" style="shape=image;html=1;verticalAlign=top;verticalLabelPosition=bottom;labelBackgroundColor=#ffffff;imageAspect=0;aspect=fixed;image=https://cdn4.iconfinder.com/data/icons/logos-brands-5/24/kibana-128.png" parent="TD_IeNhZF-zL-fBLPQMa-1" vertex="1">
          <mxGeometry x="-270" y="520" width="80" height="80" as="geometry" />
        </mxCell>
        <mxCell id="HUuItKbVjGI10uN7tAjA-4" value="" style="shape=image;verticalLabelPosition=bottom;labelBackgroundColor=#ffffff;verticalAlign=top;aspect=fixed;imageAspect=0;image=data:image/png,iVBORw0KGgoAAAANSUhEUgAAAToAAACgCAMAAACrFlD/AAABg1BMVEX////mUizwWij5sRH5uA/lSh7ybSP1ihvlRhb2lBnzsKPvm4z1w7r3oRX4rhL5sxD0gx35tw/yciL1jxr6vQ7xaSTzfB/kPQDmTyfxZSX1kRr4qhP0hxz3oxX3nRbybyLzeSD6wg37yAv+9vTwViHvSQD98O3lQw7yaRftiXH2kAD75+PwUxjwVyP63tj1igD71Mj2o4npa03nWzfsg2roZEPyZgDyqJbrd1vlTC3xbEP4uKbxYDDzeVT0j3H1mYD3p4P3zsb0hjD85M3+9en5vn384b/vmYj+8dP0hmbvRgDyajnyd1D5wLH0im37z8H4spnyajDqeGH1mXrzgVjwWAD3rZHydUD1mXH6x7Dzg0r1kV/0hUbtkYD71L7zejX3qn72mVv3pG71kEr5v537z7D2mEf3p2P1ljj5wI74tXH3p073oj74sGL827P6xYX3oi74r0j81Jz6xHb94rj5tUT6w2T4tDX83qH6xVH83oj7xT380mX+9d782X3+7sD82l78uGKFAAAQNElEQVR4nO2diVfa2BfHgTaKiK3Vqs8fldYJBiQQkV1BLYJax1KX1m6OttPqTPfF6Tptp/3Tf9kISXgbe0C+p+fooXlJ3sf77r3vvpdgs3W8+HbfQMcqk81w7b6HjhS35Av7FiPtvo0OVGQx5HA4fKEM2+476TRFtnwOWaHb7b6VDlMkq5IT2W22+2Y6SsKWRk5kt9wbs9Ri9eREdivtvqGOEbsUchj0ey/OUioTNpJzhBd7yTGVBIcZnSM03+6b6gwth8zkHI6Z3pClUGSmkpzDd6fdt9UJWvZB0DkcvdksUcJihafreTs6FSGeTg6yK0VoZixsF4s9i5TE3YGPV0c4FJoJLc4LZUxsZH4rNDMjfr7Vm27Yiq5lODiN38zN+aKc5LGZ5ZlQuBd/ZXGZJUcIYXN6euHFTd62vegrH+o72xUCYTlE5qbS8804QvpgEs4K7b799imykoWHBzqFMu3uQAvEieJ5XvpR/pBf8fmgKQmtfCtdHijYSDGzKI03cWiGHVup4raMj0v56rE4Gd2trka3cyudDelclJhtOJZuZWyRm5QuDqPwUteWVtjI5kzIV4lIMkDa4IBX18aJbQi2hirUteiKzQUnOrvuRVdX/CQrvNW1vq5Y43gNh30+cZqqSHSWYcSfwLfZtRWAWqxOzFiyi0tLm/MR1saK4orLS0uLWehcrYuTk6p9nchtxbUdqRiGfKSY2pwJVfwlsl07ndjOVoFNyliW3TzSjjhhZ8tMLxzabmV/Wqhq0IWym2QT4lcWjfDCji5lF6FG55uRfBuFhOKWAZ6vS9dqEQsOleB8t+gTNG7HAM+32MQOtFFLVNmJb6m6UcfOZ/XberozzKYp0IVnlqvOzoQl3aqtr9iMW2+3dshlJV+2pp4XHdpfJRzqSnf3O5HczRqnoZFFjV0HuzuW4wR3JpVKuYoRnjN4HlKYCC3WPIHntzST9nVeZszyQi5qB06/3+9kJCm/2RMuQU1tEdshNHKbdbh4dr7ErtPWd9hi6jDmdwJ7pQDjt8+mXGJ/irBNOOXRWl+Vl02Vzt5JG0DZyGwUMAyMm4aPScSLwk3MkA1v1WssmZLdzXSI2bHCIXDisJXoASeI4awuV/etlNh1yGp2Jm5niNj0BFGOrhG7mEobGrPW30TBuqIIewNonlB4vnpCRPl+VHah2xafU3DuBDQuiGL2XBhbbIajU29J3SO1a+28WEjbUR7Ov8EWnWh0lfBCOw26KX5fjkQhK0/HhFk/MjQwgzZbnBA4HJN67ZIvyAuRneu3b9+ez0QEAT0et3flE/7ewK42WO4YxpnNij3bI8VcPbt9gpGwkcz85P5+SNb+/v7k7cw2aoTPh+QzWrXoycYBhkxMim9pcrqiwSM9eJi5t7sfMljp5P7k1h04HfamfEqLbjsWErh8hNmQjiFanZ7dA8zFuJ2x/Umo9sfuwqJBRD7cmqmdK4bF4pQLbiRfJyurMLiDSSW27yDAyfDu3YVU9+5LLXatmNpt4KcOIC0fNUiXKMsAjtAXO0BzkxUIVO5pF+5JJ7Ve/YSdJTBhXPJxgp8KnX1ybCyJvJjwMDBG0v5Bxai9LrYK3LdaVszGSdbkVOeihrwOJNDsAvdRFzu6RyYnQrpndpWc9PFDi6Hj9kjkQFQ1ArfuSKcLM34nUZn/EQ042fCOTZhks7PWDhQ2TfRgYE+9ZSGmfcYMcpjhG0M49KO+QB+lzKNTSPb17VtqLoYereXAAeJqL9jD0sEgwQuYaRmwwztpIhcoCcruwNj2eqAvict4Wi1MhIhq8DR0NrfGpmhz42a0IlrIxR4aGCUDB/ev37179/r9+1eTEHrJA4PdRa72BZ60AAmtNpDkQCpXYifPwhRFgUrGhkdnZ/YqXfqDq2UFkiPH2k4KNvLgYTJ51azAdX1r7iAQ+KOpMKpSCt195tDGq+zEX0tSQ4MzRUJnZ9LmiwkjOioPj0xoueM/AmZ2yWP9EdcDV0eaxKF65ZAlJsnUbLaiRrGkUmonxo0cHl0pGSzrIDCi6S4kzeB2Ho2YpQ83heSIZdBxUdyqTVrEo3hCqeBUkvyJPKUlJcjAbiyEHCU1IEnEXEN4FDCSCxzo05FH1rE6bEIno8vJbIFuAiSndsAt/sYR00G/IVQ80bA8QucYj01Wl3ys/8+kVdDhnZU0YNWwIJNSJSSAGCRkeyJOaZlZ3dWEPzQeecxNPUia2Okwi3ZrjemEgBuuJQen1NT1ViKOWKBETzc5l9Yxf5C8pgg1WlUdJ0eu6TSiy0e4Py2SnBzie644OIGRnJa+mRuUwoZkgAR05eyOfVoi95hwX8fXjLJSGqyI5OUZ2WK4BNAHWOkToFUDyPU7JlVqVhhXSTwlzUM1yKoeW2OQ6kQyGUbuIivmzH5jpIwBp9qZDLl+p7XNl8arIVWDih03oEtabcsEbk1VUmmUis4OGANiFADll/xTctVYixQn44pWC+R7O7k2rtdfjet1I8SR1hn8qod3AyZuHDF7TEz+ebQ63rdAZGdXB/cTlcNTiptj/zSgG7fWiMXMwBTFSnWmBOM2N5WnWLIZZclmp4JfVTHgEhNNJ0Z0+JDcYrGYGZgsbcbPpdMmv56bkHz/icRieIRsdUBxVSq6YapiJbtqQGeRlEQRYequm4By0ZSprTAhjsH8sCKy2alLQqvy4eOrdIPv7/FhnZ5S+MdWiSWFV62kbmP3zI35CcHGraq9Gid7O2U6pjb4iw5dwYBu2EIj1k3qrrJkLYmtSA34Cd72ROsVhbeTzVZF9zfdDbJXDOhOGtXx+kWcffox2zt4J39S7tU1Ijpl2vZXdej+NqAj54KtEo9f6pcsBdOai+f13dolsnNKG3fWqhqwtucGdC8a0euGCL9Pzm4s0FWILf55RaerRHTy6D8alo9+RonueE53ieGXlsns8CUTqbPYuc/dYT26YSI6INWUCwqLOcpgeaJHd2XOMuuvxBplGrfeyT650l/WlVFyoJBibOGZ3GqYKiWW0ekuQpcNtkDbxPF6iBsg63P9Bl0j5idASnCOlWaUceLEcBHLWB1pc44dmBdkDBo1kusfJqOTJr35Z8rhdGZ3bEl0LGnmD2I4V5c3keu/QiInToglB/BCpjG3RnWTzy2JjljcBVFc8xdzo0b1k9HJhfbCXL90+BxVfmu8ilXQEacSoGLxWa8TMzqKOKEkO8+VlkGKIcu+HLUkOuJCFv4pwOdmduSkWCnRF14qLZ+R2bFBwxUGLJLXkerDugUFuN4E/6fX6BgRnVpNKLxUWs4Rp/P5OcMl5t42put1CrvkT4WOfWPsGEWtGCi14vw7hV3wBSEzfmn86/wvuGYFu+NJWR0RnWh3A8GBsijQMWqZPf9KaRh8tqaN2sLbVy9N52ffDZgUfN5QCLWJJ+6lJqPTEFCjK2WKhddqw2Aw+PbNen79zau54IB5erZuJjcwMLfeeBTVirwNnQKdrbBWZkf2dfr12OfBUsugLOmn2aSeByvZvWp/qZi0t6u024SkN5rhkZMTw1+j8PZdUIcmOPDaHHHz3kpyA0G6XLqZIlacCCmxpsKa2EOv1ztAJqerOsstT1+/k+1NNLh3a28qzvw2KJ23Qm03O2JuYgcJynBWGAoGvd7RqtGJLQv5/D/v371/k4fxgHHzeoOv6+57nUqRdzsA6od2b6x5vVco1rGN21YIeg9H5w222+woHvSqpqPrp1sUVkfnPtUzIsh5vafV97ahokBXXkqkEB8jnk96fID6fIV3SHTtXqKgebzQ7yafpyQXzZOeVVgdariKet/mEYvwdUD/DDaIUZ+OuO9HFr0LOPUOIeWtDMYtFSLCxuPRWPk9RE5sndhwulKuA4AYLrK7Y9AszxxhkTpFgxPVZnTwvE6cn7OCK5W2M/JrTqDPKcGk7PsBTqc9Fl8dHvVOeetCh7O5oaF2hwn4og5Iy7kcJwjuxISfYZyUI+xQPNY/EXPlBJ49HZqamoKnKjRzO5tkc1NIDX1u+ywWMYfV73rlXRuzaaqHxVPp+KFLM9B/pqY80JNXPrkD04+PGHLv221yNmTlxOzIWZqXgLE5Q+W74PGMwvNjcPCBeLIPHiQ3z6f1dqfDkpBFpwY8ppv39MHPvdDv+XgD27Tw0QPVx4+fvhQKVih0Ktv5acyuJh2jksYBj2fq4ymS3vo/cHAePO9WC5XYYVdf6cSinqTIemUQF95+gLD48eEtAtyUBRycXqgVMenx4DqFqgUu9JVxfP66XigoQ5CVfvnyGcFN1Kf6e9tQIddh6fNghJDPKi5cO2dAcu7z10+Svn4+h4Cm+DkrxAa9cqj5et1DdgM5J+s/d8Egj/jP45F/omUxR2eT3s6B6iGzV9cqewq96jF0DscIIXI+03KhdzoxVZTVKpTD1AEunKtWF859aViHGyfM6oSz9pc6YpbGF3YvVY/OiuRMr2YyqYpKnUE85mn4haGL1ZK7aE1yuL3EILoxWJOw7xG4cLFaWZRcucYGY8fUJoyjE1OTKsFdslxsLYnHGEgTtDB6vjpyXy1LDvc6omYo6zl/qRp9t1omrBdmY2fjB+zC8OXz1ejSj3bjwQn9ZCKIumoT+hUKC56qyJ0/b+HhasOkdrqXhlUn5H6Mhex0deQuW9rqbCzKRJqAznO5Ok1b2dXZ0M/+NxzdwthFiYdoTLSydJQQxSPS4sZbnXdaxPHtRuHf79/o0Fk1G9aUag26hRGR3PQX2ZAKP798/zZNHK/WjhI25DsnGo5uavry97LfL/z4cePGjZ//fftNZDQt/qvQ5e8N6mATBS+GNxjdwvC3/9BW9C8E3bTlxyvqrbqNRQdip7hMo/ALgq62y7dW0MfsGouOuOj/WycanQ1eQAFpd22ahfwdGPKGxO8mcr8snpmUBHuFOHDWJpgF28nLRIUv07/p9bMF3W6EyC/tqE9U311345eO3H/N7nLDlGsmOMqNYTbbFw3et6b2trEaxD31xEyQhP06HvpNtYWfv5Rha/lsWC/Mu04p9u9gSqYgWl2o/vfXr2+d4ugUsejlGBAndh69olvDToKCtYtNleLQX4LFENEh9xEAp9XeTdoMsVEUOz+x+8hv+YjVupzbWRJQ7IjPiaDevQjMr/fsWnEodjH8HlnUu2YAXULXFUJ9vw7YwHo7xLoaSJwdchI7eH4HcBAQm5IZu0Xe59IqueCVzwn0kGXhs7gqnkHsFuWgXw6LTs84aGICJtzW2KffUvFp2Ao+iMFLbvDvRGXOlJvTqQgzPODfqzQ8fhBaZAIbZ8zNlQX/LmwmNmu0JWEQZnLAmTgr2RxU7ihk1AIGxDaKOU6SUExF7bCRzcRSZ9DL6cWmErApAmCcfr+f8U/4ndA9TQzYsNQ3QbZHnGsC5sgwAszE7FmY7VOIde0B/Bc8G8FFB3sWp4l1H8aoTA8wTNzVA2cQy7kTdrztSf8bG+TOeHCAi9/e2LMzDIDEXNHaQPSw2PNwaHGCOzUbZaQXKYgIgYSMcU5MJOKDxVxvnNKIFVwrs7PxeHx2diWV6w3Rnnqi1/8B7v/ib47U4SMAAAAASUVORK5CYII=;" parent="TD_IeNhZF-zL-fBLPQMa-1" vertex="1">
          <mxGeometry x="-340" y="756.9" width="220" height="112.1" as="geometry" />
        </mxCell>
        <mxCell id="b3ghl93sDo5R9-F1FpSm-0" value="" style="shape=image;verticalLabelPosition=bottom;labelBackgroundColor=#ffffff;verticalAlign=top;aspect=fixed;imageAspect=0;image=data:image/png,iVBORw0KGgoAAAANSUhEUgAAATsAAACgCAMAAABE1DvBAAAAqFBMVEX///8AdahZWVtKSk1OTlAAb6Xl5eX19fVSUlRMTE9WVlgAaaGenp8AbaTu7u680eDHx8jV1dWqqqrv9vlxcXP3+/y0tLVFRUiPts+BgYPh6vHc3N2gwNWnxdi+vr4qf65nZ2mVlZZvosNgYGJ/f4B3d3iLi4zNzc43hrKcnJ3F2OXP3+oAZaAtgq9cmL05OTyArckAX51VlLpnn8F5qMba5u5GjbY0NDcm/kpdAAANHklEQVR4nO2c6XqbyBKGWSVAi4U2rMhWpGizE9nJ8WQy939nh0WCqupugRsEaKa/HzN5DPTyUtVVvSBNuy/9+ShbwqM+qaIh96ffdu97uRImJ/ulmrbcmSYn3f5drohnW+/9qKY196UnW9e/liviL1u3/6qmNfelF13Xe+WKeCtfxF1q1os6Xm6oDy1XH/wHnfZHzO5LqTIGYRH2U0UNuiNFw10l7L5V1KA70m+7vM9G7PS3ihpUpb682wO7eunfEl5RqIjMpqheOL4ZsxvUzKWAfpxs/SayE0ftffa5gc1EhZhdSb+/haqHliqaC0w+zU7XTwReHKr1QcnJSfX6dSOrixmElvJ9IPGgPUNtTMpoXaD9+1QxL6goJXuSeTf2I2rke1xG6wLt14pxIUUj1G8pu0ZzuB9nt29ZoL2lxyaR8UXqSTgB+2Jz/ti8buqxSayQezm9bMB7SAfMdgXam3psvPIkE2b1mN3sIdLj1yzWtCrQPsrEwOKKAqNUmI3ZTf43CAXNtk2B9oucTRRWZCdSYTZhx7SuTYH2rTSdHADhpOyxSnbvTRNLdWOPTeLiv9Pubu2xSZiVjORcdoPnppld9HLT1E7Xzxs8f6Sq4dtd08guerq1x57D4sSWgcdjR1cIGpNk3vUZ2YmLTT5OZHlwkF93nKPgZ97+bhhZqj83R5cN7ZOHJ6jn7/lDbZQb44daQ057vr3ZXVloz59F92aCR5tXDR4biw/vqZDPtlU1eGyC4Nszo6e3AlGqvexq8dhY3E2gAmotO+Sxt87y5NRadh+Al/2tlfDayu4hMztbnzzcPEeWUUvZzTJD633AZdk2qaXs3lN2p2g3SrH7hFKPTQ5lKXaf0HnHzn5LElfF7jOKs7ve5QhqE+zyQ3tb2Wm/BvopXUZsgN3gV+6mbWvZheEiW5Won539nr+32V52UPWzC7kodnKKluIVOzkNHhQ7WQ3+VuxkFZ3IUezk1FN2Jy3FTl6KnbwUO3kpdvJS7OSl2MlLsZNXxC73xKlix8cSssvd2Cz5+wI1qZE5WV6l5JuotqqRtYC8AW9wFy7bALvoC5PrJ/BOD01TKab61z5/RdV+0YX12r07QVeInT0oIxoXzt+uP731uPr6eDc//ZTPztYfH0ro+Tfxz+wziRlPTcL4pHLZlf+aZkIN7z6iaL5y2VWQatHIMPho1dec0spjV8nHNB+01N7Lr0eoe/LUTLnsqjicz/kiDx2jPd1NeEDKY1fJx9J5XzOW/NmepqTYyUuxk5diJy/FTl6KnbwUO3kpdvJS7OSl2MlLsZOXYicvxU5eip28FDt5KXbyUuzkpdjJ63vOb1ZU0q3nPHYV1NGAZtfZ2ZX8MO7k+i+5tehHAT+nh6v96lXzO0yP196QPbhPlw31/euJf7qh1zv9qWoj9UEX1dE7vd8tulCziUBVViKq457BKSkpKSkpKSkpKSkpKSkpKSkpKf1XNOsOh92WfmkyTP7X4WuY12p0N3vzEF3v0suzK9c0zR8ftuZZ28X4SIpHRZNHu6gTpCqRuuQ5WgTR67Q/3UT/+GkK5O3HvhhdFz4XzJnr/QBeX9DLy/TxnyNyabQzXcfzjLM8z3HNHbxpCKoO1uTpI7wYd7Aj7GHahFX4uoR3bQ9z/IL6886oO++H/7IMkcJGW32OVcRawec82gNNGzuwqICaR8e8XLIwu7njegYjz/VWGTsTXJiSgn03u+j0cVUiWSv8HKnbc8z1ClThaYfOVHOusourD8Z8djvUw4AxbczO2xdjtzSEzXGnlzpqZhdX43rHtIqtttmvwv/msQsLXvNMr4sb5DBOi9kZ5rIIu3HAsbm0/ZcyGmAXVpQMAJEMbbF8Da0vn13ouhx4K/wY67SEHe0jl90hp/3Bsjl24V2XQXu062rd3aoIO8Pbsux2xEBMOqARdoZ5RJd57A65TXG7DbIzrNdLHfv1Pu5OPjvD2ZAGat2A3kKHRcqOWCaH3Ti/9cmw2RQ7I6B5RwF2bJhc0acY26TsDBfFU5bdkryOMDOx3DBbQX80/SbZMSMTonDJaSzskozh7ZkxnTotw84zrrMzUJGONV5GGavfRylLbHhl2HkWRwFl55wxhHkm7iQxPJSnDRMtV3v8slz8DOOyrNMy7OK3K2Y3R+/QPWS37mBJUTJUgp03PY446pDnNgmGjj82UDeoDcE2O9mfj8iGSYrBuCzrtCw7WDrLDqPrw6KgkUcvoAw7ZoIjfi7RBne1EDttBC0P2QzoDegVcVoOOwuYJmWHpyk7VBS08ujN18pOO0C3DXC6JmKnrT1BaVlnvCm4BTsthx30fMoOVmaYJKEEzY9Y1csO1kb9T8gO9h47emokzjjzJ+K0PHagTYTdMODflmgE2ujVzQ69VhcHCyE72GLMLgVmjTZZwdhpeeyAQRF2cxoPkGDvzdrZQae1cIYvZHeE7F7BhWz8MTsAEXZaLrvsFRB2cJrC4ECT52bZFbU7OHwjLtkFExonTuAydmisvZgUYYcawazcQHb1++xOHBCF7F6B5SBbzaLsGrsTHEhTdh4cL7xL3obZofHYZVZc08ue56xrZwcdyMQPCdmhIQhEvsxlI0+GxgmrTNk5qy0sqMNjB4cHmgdo0XTNct1oJXu62NSd36ELdBlSxG4D2KEWZi4bdRstqHDZjWEguKRumB0KFR7Tr+V4dVxm+xqI3Xq0QurD7KAKdlsYKsgypYDdK5xXoHn8NC0sshDYbei0mc9uZjABOa/BYXZ90XviCnk4naDCt1BsTnaV3XB9JTXmsesuxx6yBJi6ZalY3EvYMvi+MnZ7FKnOaDC7A29ILMbumgqtBQRidsPjxvSY8gTsjCAWXflB61aZoSUL7dCmgbuBWKEtUWrus+yg47OLhVWyY2Wx7AznzAFZcRipaEvy1+/wzBy47BBBMpDTZn924DOXRTDMbiqc/jXDjq9gSVuSv9CNnAi4bAxB5LQZu9ApjsjwRgw7NHUWbMw1zi6gG8n57IJXdDt1WZHTInYITjx63h07j6575rNzyNYz47Iip8XsfBhq3dXdsfPMNe9wxTV2jkkHH8ZlNRQJsnkvZocnrFvY/3sY79wt66857DgmwLqspqFHBOw60PBC8+8idnBl2HllKm2anSM6l3PN7jzGUNeMy+LMNh0VCDs8Tdlps+ryOw8K95mT37lEJie/YzDsBC1B7Ehi7pH1eZ7LEqe9ZGeUHTqEEXJH7F45s7Zi7JiDLj4zwUbzin1nScVh5xEOliDnRBsF4RRlbl1JVHkuq2ko9xaww8vQ42ylIWIHr/FOIVxhd4u1AG8Rztw26GXzvZaZkw3RAgpesMoGdWecTr9He87qIMMOrcs4mfNH7OASNV3naYBd8twKPsd/oex8FiYU2CfgtoKTTQmR3W1E7OBaquXvIDs8aaOHEKLSVr5gHeWGa1BwiCYbhUJ22kGwNoLXigRyROxgEu0tNpCdBtnxmhlY0frddn/oz7v1rd/BkYSO/CJ20LxQbWscx7g6Oy2HnQ87kZYUs+OuLQM554c8Jxx5amMHzyq4vAyPt34HrRXsWhVKrM5Oy2HHOcVyYQfTHHqAI1JWsbuscd0YGt66IDuYyTqZGRRx2UuyyWPXYY+xnNmhExx0Goi6b9bJbszLXHPYoUlSZnhFXDa0jKOIHRpIMSmUv65pG8FLM4c1soOnOXiGx2U34m1wcM2GVeK0XHZDTgkJuw1yWhot4C5frXs9C5h9sTGMv18B/+qe02DudjVHrpAdHtcSJexQlhIZFxQAG806amTnX0+e+OxQJ80EHnBZ5gMOxPooZMeZPZ9HNzhKGJ4Dm9kHHYh2qurcY4Q787hVYnbYu9z9qNMBua0zpELHbQ5idnMG3pkdWuEzPDNdwllO6eZtqbOLc666Ina4vebG7yxBJBPsMeJh3bOgafG2Y5DhidmRo7EZO22B3dkxF+Gsb74xTGbWUurMrMNTOPMU7c+SVllmADovYMcb1lM2nHCNJjBHMbsRzREv7Lr0ghfO+hz6pUG3JDu+TDE7xlHgIojoXABnWL+Ik7yiDC1yWhE7PLAZIJs75odxMw51tbJjHMXK99kwMRBlc/zVSRSRrrCj3wJkbZnnwXMTd6mXnU9aBZ1OyI52Mnuau3iPjqmNxOxQzmSg95gD77LZWS877dWi9+azE3aFwkh0xJFWzI6MpNAHRqZ45uIFlx7VzE7bo9ELHoYWswvh8boiypGw04rZ4TkEnr0OpyJ6lpH6St3stL2I0RV2mu9ZbFfYqXoi5LTHuZgdjqikuOPaZIOU53ogutXOThsH6Qc+aAUZfiPOeuNqb5quZaEvxAWfco9gSYtx+s37P8yPCYzh9+XMN+/+xjKdrK2OY5oHdER6+A+oaE2elvnm3fzZQd+8B+y3h+NtEHJwTdOAXLtQPCadpe938m5iSppduz+vzuWqv1jH6NaL1xVzhObq4+zFbr4KtKnb8X0f/TDE/wFlE1OpZFkcqgAAAABJRU5ErkJggg==;" vertex="1" parent="TD_IeNhZF-zL-fBLPQMa-1">
          <mxGeometry x="-314.17" y="633.25" width="168.33" height="85.5" as="geometry" />
        </mxCell>
      </root>
    </mxGraphModel>
  </diagram>
</mxfile>
